<?xml version="1.0" encoding="UTF-8"?>
<svg xmlns="http://www.w3.org/2000/svg" width="25" height="25" fill="currentColor" xmlns:xlink="http://www.w3.org/1999/xlink">
    <path d="M12.504 16.871a4.33 4.33 0 0 0 1.668-.328 4.38 4.38 0 0 0 2.367-5.719 3.88 3.88 0 0 0-.297-.578.37.37 0 0 0-.273-.18c-.109-.012-.227.027-.305.105l-3.473 3.477c-.105.105-.262.168-.422.168s-.312-.062-.418-.168a.6.6 0 0 1 0-.84l3.473-3.473c.082-.082.121-.191.105-.305s-.078-.215-.176-.273a4.42 4.42 0 0 0-2.27-.629 4.38 4.38 0 0 0-1.66.328c-2 .832-3.094 3.023-2.562 5.121L1.152 20.69a1.61 1.61 0 0 0-.48 1.156 1.61 1.61 0 0 0 .48 1.156l.844.848a1.62 1.62 0 0 0 1.156.477 1.61 1.61 0 0 0 1.156-.48l7.113-7.109c.352.09.715.133 1.082.133zm-9.352 6.711a.9.9 0 0 1-.633-.254l-.848-.848c-.168-.168-.262-.395-.262-.633s.094-.465.262-.633l7.266-7.266c.098-.098.133-.242.094-.371a3.66 3.66 0 0 1 2.078-4.437c.445-.184.91-.277 1.387-.277.5 0 .988.105 1.449.309l-3.117 3.113c-.52.52-.52 1.367 0 1.887.254.25.586.391.941.391s.691-.141.945-.391l3.117-3.121a.31.31 0 0 1 .027.059c.766 1.852-.117 3.98-1.969 4.75-.441.184-.906.273-1.387.273a3.65 3.65 0 0 1-1.082-.164c-.129-.039-.273-.004-.367.094l-7.27 7.266a.9.9 0 0 1-.633.254zM22.895 9.188c-.598 0-.84-.43-.918-.613-.059-.145-.219-.645.215-1.078.371-.371.574-.863.574-1.387s-.203-1.016-.574-1.387l-1.914-1.914c-.371-.371-.863-.574-1.387-.574a1.93 1.93 0 0 0-1.383.574.94.94 0 0 1-.684.293 1.12 1.12 0 0 1-.398-.078c-.184-.078-.613-.32-.613-.918a1.93 1.93 0 0 0-.574-1.383 1.93 1.93 0 0 0-1.383-.574h-2.711a1.96 1.96 0 0 0-1.957 1.957c0 .598-.43.84-.613.918-.09.035-.234.082-.402.082-.254 0-.48-.102-.68-.297-.367-.371-.859-.574-1.387-.574-.52 0-1.012.203-1.383.574L2.809 4.723c-.371.371-.574.863-.574 1.387s.203 1.016.574 1.387c.422.422.289.895.215 1.078a.96.96 0 0 1-.918.613 1.95 1.95 0 0 0-1.387.574c-.371.371-.57.859-.57 1.383v2.707c0 .527.203 1.02.574 1.387a1.93 1.93 0 0 0 1.383.574.93.93 0 0 1 .785.383.37.37 0 0 0 .559.039l2.688-2.687c.078-.078.117-.191.105-.305a6.33 6.33 0 0 1 3.848-6.566 6.27 6.27 0 0 1 2.402-.48 6.29 6.29 0 0 1 5.832 3.895 6.25 6.25 0 0 1-.004 4.82 6.26 6.26 0 0 1-3.406 3.414c-.77.316-1.582.477-2.41.477a5.93 5.93 0 0 1-.746-.043.36.36 0 0 0-.297.098L8.676 21.48c-.082.078-.125.188-.113.301s.074.219.168.277a.95.95 0 0 1 .457.836 1.96 1.96 0 0 0 1.957 1.957h2.711a1.91 1.91 0 0 0 .75-.148c.238-.101.449-.238.633-.422.371-.371.574-.863.574-1.387 0-.598.43-.84.613-.918.09-.035.234-.082.402-.082.254 0 .48.102.68.297a1.93 1.93 0 0 0 1.383.574 1.95 1.95 0 0 0 1.387-.574l1.914-1.914a1.96 1.96 0 0 0 0-2.773c-.434-.434-.273-.934-.215-1.078a.96.96 0 0 1 .918-.613 1.96 1.96 0 0 0 1.957-1.961l.004-2.707c-.004-1.078-.883-1.957-1.961-1.957zm-1.602 6.957c-.102.25-.383 1.125.375 1.883a1.22 1.22 0 0 1 0 1.727l-1.914 1.914a1.21 1.21 0 0 1-.863.359 1.23 1.23 0 0 1-.863-.355c-.34-.34-.742-.512-1.191-.512a1.76 1.76 0 0 0-.691.137c-.254.102-1.07.523-1.07 1.598 0 .324-.125.633-.355.863a1.31 1.31 0 0 1-.398.266 1.26 1.26 0 0 1-.465.09h-2.707a1.22 1.22 0 0 1-1.223-1.219 1.67 1.67 0 0 0-.441-1.16l2.359-2.223.656.031a7.02 7.02 0 0 0 2.695-.535 7.01 7.01 0 0 0 3.809-3.813c.719-1.742.723-3.656.004-5.391-1.098-2.641-3.652-4.348-6.516-4.348a6.99 6.99 0 0 0-2.687.535c-2.828 1.172-4.598 4.109-4.316 7.156l-2.297 2.297c-.301-.246-.664-.371-1.086-.371-.324 0-.633-.125-.863-.355S.89 14.18.89 13.852v-2.707a1.2 1.2 0 0 1 .355-.859 1.21 1.21 0 0 1 .867-.359c1.07 0 1.492-.816 1.598-1.066s.383-1.129-.375-1.887a1.22 1.22 0 0 1-.359-.863 1.21 1.21 0 0 1 .359-.863l1.914-1.914a1.21 1.21 0 0 1 .863-.359 1.22 1.22 0 0 1 .863.359c.34.34.742.512 1.191.512a1.88 1.88 0 0 0 .695-.137c.25-.105 1.066-.527 1.066-1.598A1.22 1.22 0 0 1 11.148.887h2.707c.324 0 .633.125.863.355s.355.539.355.863c0 1.074.816 1.496 1.07 1.602a1.83 1.83 0 0 0 .691.137 1.64 1.64 0 0 0 1.191-.512 1.22 1.22 0 0 1 .863-.359c.328 0 .637.129.863.355l1.914 1.914c.23.234.359.539.359.867a1.22 1.22 0 0 1-.359.863c-.758.758-.477 1.633-.375 1.883s.527 1.07 1.602 1.07a1.22 1.22 0 0 1 1.219 1.219v2.707a1.22 1.22 0 0 1-1.223 1.223c-1.07 0-1.492.816-1.598 1.07zm0 0"/>
</svg>