<svg xmlns="http://www.w3.org/2000/svg" width="25" height="25" xmlns:xlink="http://www.w3.org/1999/xlink">
    <path d="M16.945 6.426V3.77a.45.45 0 0 0-.453-.449H3.418c-.254 0-.449.203-.449.449v2.656c0 .254.203.449.449.449h13.074c.246 0 .453-.203.453-.449zM6.816 3.809h1.211v2.59H6.816zm-.488 2.578H5.109V3.809H6.32v2.578zm2.188-2.578h1.211v2.59H8.516zm1.699 0h1.211v2.59h-1.211zm1.707 0h1.211v2.59h-1.211zm1.703 0h1.211v2.59h-1.211zm-10.18 0h1.172v2.59H3.445zm13.008 2.578H15.32V3.809h1.133zm3.039 12.762l2.031-1.57c-.449-.293-.984-.469-1.57-.469a2.86 2.86 0 0 0-2.863 2.852c0 1.57 1.277 2.852 2.863 2.852s2.859-1.281 2.859-2.852c0-.648-.219-1.281-.625-1.789l-1.582 2.121a.8.8 0 0 1-.664.352c-.215 0-.422-.086-.574-.238s-.238-.355-.238-.57c0-.234.102-.453.277-.609h.008a.37.37 0 0 1 .078-.078zm4.016-2.762l-.91 1.223c.555.625.898 1.453.898 2.352 0 1.953-1.594 3.547-3.555 3.547a3.55 3.55 0 0 1-3.555-3.547c0-1.953 1.59-3.547 3.555-3.547.801 0 1.543.266 2.137.715l1.211-.937a5.02 5.02 0 0 0-3.348-1.27c-2.793 0-5.051 2.254-5.051 5.039A5.05 5.05 0 0 0 19.941 25c2.785 0 5.047-2.258 5.047-5.039.012-1.398-.566-2.668-1.48-3.574zm-3.566-2.336V3.32c0-1.828-1.484-3.309-3.32-3.309H3.328C1.492 0 0 1.484 0 3.32V16.68c0 1.828 1.484 3.313 3.32 3.313h10.695v-.031c.008-3.262 2.656-5.906 5.926-5.906zm-6.66 1.633v1.629c0 .141-.109.246-.242.246H6.648c-.137 0-.242-.105-.242-.246v-1.629c0-.137-.109-.246-.246-.246H4.383a.24.24 0 0 1-.242-.242v-2.023c0-.133-.109-.242-.242-.242H1.984c-.137 0-.246-.105-.246-.242V3.953c0-1.148.938-2.078 2.082-2.078h12.293a2.08 2.08 0 0 1 2.082 2.078v8.734c0 .137-.109.242-.246.242h-2.305a.24.24 0 0 0-.242.242v2.023c0 .137-.109.242-.246.242h-1.641c-.125 0-.234.117-.234.246zm0 0"
          fill="currentColor"/>
</svg>