<?xml version="1.0" encoding="utf-8"?>
<!-- Generator: Adobe Illustrator 26.1.0, SVG Export Plug-In . SVG Version: 6.00 Build 0)  -->
<svg version="1.1" id="Layer_1" xmlns="http://www.w3.org/2000/svg" xmlns:xlink="http://www.w3.org/1999/xlink" x="0px" y="0px"
	 viewBox="0 0 425.2 95.1" style="enable-background:new 0 0 425.2 95.1;" xml:space="preserve">
<style type="text/css">
	.st0{fill:#03405F;}
	.st1{fill:#18AA88;}
	.st2{fill:#FEDD7E;}
	.st3{fill:#02BCC2;}
</style>
<g>
	<g>
		<path class="st0" d="M132.3,59.4c0,2.5,0.9,4.7,2.7,6.5c1.8,1.8,3.9,2.7,6.5,2.7c2.5,0,4.7-0.9,6.5-2.7c1.8-1.8,2.7-3.9,2.7-6.5
			V38.2c0-1.3,0.5-2.4,1.4-3.3c0.9-0.9,2-1.4,3.3-1.4h0.1c1.3,0,2.4,0.5,3.3,1.4c0.9,0.9,1.4,2,1.4,3.3v21.2c0,2.5,0.9,4.7,2.7,6.5
			c1.8,1.8,3.9,2.7,6.5,2.7c2.6,0,4.7-0.9,6.5-2.7c1.8-1.8,2.7-3.9,2.7-6.5V38.2c0-1.3,0.5-2.4,1.4-3.3c0.9-0.9,2-1.4,3.3-1.4h0.1
			c1.3,0,2.4,0.5,3.3,1.4c0.9,0.9,1.4,2,1.4,3.3v21.2c0,5.1-1.8,9.5-5.5,13.1c-3.6,3.6-8,5.5-13.2,5.5c-6.1,0-10.7-2-13.8-6.1
			c-3.1,4.1-7.8,6.1-13.9,6.1c-5.1,0-9.5-1.8-13.1-5.5c-3.6-3.6-5.5-8-5.5-13.1V38.2c0-1.3,0.5-2.4,1.4-3.3c0.9-0.9,2-1.4,3.3-1.4
			h0.1c1.3,0,2.4,0.5,3.3,1.4c0.9,0.9,1.4,2,1.4,3.3V59.4z"/>
		<path class="st0" d="M201.7,28.5c-1.5,0-2.8-0.5-3.8-1.6c-1.1-1.1-1.6-2.3-1.6-3.8c0-1.5,0.5-2.7,1.6-3.8c1.1-1.1,2.3-1.6,3.8-1.6
			c1.5,0,2.7,0.5,3.8,1.6c1.1,1,1.6,2.3,1.6,3.8c0,1.5-0.5,2.8-1.6,3.8C204.5,27.9,203.2,28.5,201.7,28.5z M201.8,33.5
			c1.3,0,2.4,0.5,3.3,1.4c0.9,0.9,1.4,2,1.4,3.3v35.2c0,1.3-0.5,2.4-1.4,3.3c-0.9,0.9-2,1.4-3.3,1.4h-0.1c-1.3,0-2.4-0.5-3.3-1.4
			c-0.9-0.9-1.4-2-1.4-3.3V38.2c0-1.3,0.5-2.4,1.4-3.3C199.3,34,200.4,33.5,201.8,33.5L201.8,33.5z"/>
		<path class="st0" d="M234.9,17.6c1.3,0,2.4,0.4,3.3,1.4c0.9,0.9,1.3,2,1.3,3.3v0.1c0,1.3-0.5,2.4-1.3,3.3c-0.9,0.9-2,1.3-3.3,1.3
			h-2.2c-2.1,0-3.9,0.7-5.4,2.2c-1.4,1.5-2.2,2.9-2.2,4.2h9.8c1.3,0,2.4,0.5,3.3,1.4c0.9,0.9,1.3,2,1.3,3.3v0.1
			c0,1.3-0.5,2.4-1.3,3.3c-0.9,0.9-2,1.4-3.3,1.4h-9.8v30.4c0,1.3-0.5,2.4-1.4,3.3c-0.9,0.9-2,1.4-3.3,1.4h-0.1
			c-1.3,0-2.4-0.5-3.3-1.4c-0.9-0.9-1.4-2-1.4-3.3V34.7c0-4.7,1.7-8.7,5-12c3.3-3.3,7.3-5,12.1-5H234.9z"/>
		<path class="st0" d="M251.2,28.5c-1.5,0-2.8-0.5-3.8-1.6c-1.1-1.1-1.6-2.3-1.6-3.8c0-1.5,0.5-2.7,1.6-3.8c1.1-1.1,2.3-1.6,3.8-1.6
			c1.5,0,2.7,0.5,3.8,1.6c1.1,1,1.6,2.3,1.6,3.8c0,1.5-0.5,2.8-1.6,3.8C253.9,27.9,252.7,28.5,251.2,28.5z M251.3,33.5
			c1.3,0,2.4,0.5,3.3,1.4c0.9,0.9,1.4,2,1.4,3.3v35.2c0,1.3-0.5,2.4-1.4,3.3c-0.9,0.9-2,1.4-3.3,1.4h-0.1c-1.3,0-2.4-0.5-3.3-1.4
			c-0.9-0.9-1.4-2-1.4-3.3V38.2c0-1.3,0.5-2.4,1.4-3.3C248.8,34,249.9,33.5,251.3,33.5L251.3,33.5z"/>
		<path class="st1" d="M274.6,73.4c0,1.3-0.5,2.4-1.4,3.3c-0.9,0.9-2,1.4-3.3,1.4h-0.1c-1.3,0-2.4-0.5-3.3-1.4
			c-0.9-0.9-1.4-2-1.4-3.3V52.1c0-5.1,1.8-9.5,5.5-13.2c3.6-3.6,8-5.5,13.2-5.5c6.1,0,10.8,2,13.9,6.1c3.1-4.1,7.7-6.1,13.9-6.1
			c5.1,0,9.5,1.8,13.2,5.5c3.6,3.7,5.5,8,5.5,13.2v21.3c0,1.3-0.5,2.4-1.4,3.3c-0.9,0.9-2,1.4-3.3,1.4h-0.1c-1.3,0-2.4-0.5-3.3-1.4
			c-0.9-0.9-1.4-2-1.4-3.3V52.1c0-2.5-0.9-4.7-2.7-6.5c-1.8-1.8-3.9-2.7-6.5-2.7c-2.5,0-4.7,0.9-6.5,2.7c-1.8,1.8-2.7,3.9-2.7,6.5
			v21.3c0,1.3-0.5,2.4-1.4,3.3c-0.9,0.9-2,1.4-3.3,1.4h-0.1c-1.3,0-2.4-0.5-3.3-1.4c-0.9-0.9-1.4-2-1.4-3.3V52.1
			c0-2.5-0.9-4.7-2.7-6.5c-1.8-1.8-3.9-2.7-6.5-2.7c-2.5,0-4.7,0.9-6.5,2.7c-1.8,1.8-2.7,3.9-2.7,6.5V73.4z"/>
		<path class="st1" d="M358.9,33.5c6.1,0,11.4,2.2,15.7,6.5c4.4,4.4,6.5,9.6,6.5,15.7c0,6.1-2.2,11.4-6.5,15.7
			c-4.4,4.4-9.6,6.5-15.7,6.5c-6.1,0-11.4-2.2-15.7-6.5c-4.4-4.4-6.5-9.6-6.5-15.7c0-6.1,2.2-11.4,6.5-15.7
			C347.6,35.7,352.8,33.5,358.9,33.5z M358.9,43c-3.6,0-6.6,1.3-9.1,3.7c-2.5,2.5-3.7,5.5-3.7,9.1c0,3.5,1.3,6.5,3.7,9
			c2.5,2.5,5.5,3.8,9.1,3.8c3.5,0,6.6-1.2,9-3.8c2.5-2.5,3.8-5.5,3.8-9c0-3.6-1.2-6.6-3.8-9.1C365.5,44.3,362.5,43,358.9,43z"/>
		<path class="st1" d="M397.3,73.4c0,1.3-0.5,2.4-1.4,3.3c-0.9,0.9-2,1.4-3.3,1.4h-0.1c-1.3,0-2.4-0.5-3.3-1.4
			c-0.9-0.9-1.4-2-1.4-3.3V52.2c0-5.1,1.8-9.6,5.5-13.2c3.7-3.7,8.1-5.5,13.2-5.5c5.1,0,9.5,1.8,13.2,5.5c3.7,3.7,5.5,8.1,5.5,13.2
			v21.2c0,1.3-0.5,2.4-1.4,3.3c-0.9,0.9-2,1.4-3.3,1.4h-0.1c-1.3,0-2.4-0.5-3.3-1.4c-0.9-0.9-1.4-2-1.4-3.3V52.2
			c0-2.5-0.9-4.7-2.7-6.5c-1.8-1.8-4-2.7-6.5-2.7c-2.6,0-4.8,0.9-6.6,2.7c-1.8,1.8-2.7,4-2.7,6.5V73.4z"/>
	</g>
	<path class="st0" d="M47.4,36.8c-6.1,0-11,4.9-11,11c0,6.1,4.9,11,11,11c6.1,0,11-4.9,11-11C58.4,41.8,53.5,36.8,47.4,36.8z"/>
	<path class="st2" d="M47.4,53.6c-3.2,0-5.7-2.6-5.7-5.7c0-3.2,2.6-5.7,5.7-5.7c3.2,0,5.7,2.6,5.7,5.7C53.1,51,50.6,53.6,47.4,53.6z
		"/>
	<g>
		<path class="st0" d="M87.5,68.9c-0.4,0-0.8-0.1-1.2-0.3c-1.3-0.7-1.7-2.2-1-3.5c3.2-5.9,4.9-12.6,4.9-19.3
			c0-22-17.2-39.9-39.2-40.7c-1.4-0.1-2.5-1.3-2.5-2.7c0.1-1.4,1.2-2.4,2.7-2.5c24.8,0.9,44.1,21.1,44.1,45.8
			c0,7.6-1.9,15.1-5.5,21.7C89.3,68.4,88.4,68.9,87.5,68.9z"/>
	</g>
	<g>
		<path class="st0" d="M78.3,63.9c-0.4,0-0.8-0.1-1.2-0.3c-1.3-0.7-1.8-2.2-1.1-3.5c2.2-4.3,3.5-9.5,3.5-14.1
			c0-15.9-12.6-29-28.7-29.9c-1.4-0.1-2.5-1.3-2.4-2.7c0.1-1.4,1.3-2.5,2.7-2.4C70,12,84.7,27.4,84.7,46c0,5.4-1.5,11.4-4,16.5
			C80.2,63.4,79.3,63.9,78.3,63.9z"/>
	</g>
	<g>
		<path class="st0" d="M68.8,58.4c-0.4,0-0.8-0.1-1.2-0.3c-1.3-0.7-1.8-2.2-1.1-3.5c1.4-2.6,2.1-5.5,2.1-8.5
			c0-10-7.8-18.1-17.7-18.6c-1.4-0.1-2.5-1.3-2.5-2.7c0.1-1.4,1.3-2.5,2.7-2.4c12.7,0.6,22.6,11,22.6,23.7c0,3.8-0.9,7.5-2.6,10.9
			C70.7,57.8,69.8,58.4,68.8,58.4z"/>
	</g>
	<path class="st1" d="M58.1,58c-2.7,2.8-6.5,4.6-10.7,4.6c-4.7,0-8.9-2.2-11.6-5.7L7.6,73.6c8.7,13.3,23.7,21.5,39.7,21.5
		c15.8,0,30.6-8,39.3-21L58.1,58z"/>
	<path class="st3" d="M33.8,53.4c-0.7-1.7-1.1-3.6-1.1-5.5c0-7.1,5.1-13,11.8-14.4c0-0.1,0-0.1,0-0.2V0.6C19.7,2.1,0,22.7,0,47.8
		c0,7.8,1.9,15.4,5.6,22.3L33.8,53.4z"/>
</g>
</svg>
